<svg width="115" height="28" viewBox="0 0 115 28" fill="none" xmlns="http://www.w3.org/2000/svg">
<g clip-path="url(#clip0_2775_765)">
<path d="M32.5 21.9598C32.5014 20.3605 31.7756 18.8261 30.4818 17.6934C29.1881 16.5606 27.4321 15.9221 25.5994 15.918L17.9484 15.918C17.9003 15.2958 17.8699 14.6596 17.8699 14C17.8699 13.3404 17.8396 12.7073 17.7969 12.082L25.5994 12.082C27.4162 12.0566 29.1488 11.4089 30.4233 10.2788C31.6978 9.14863 32.4121 7.62659 32.4121 6.041C32.4121 4.45541 31.6978 2.93337 30.4233 1.80323C29.1488 0.67309 27.4162 0.0254409 25.5994 -3.01633e-07L7.31321 -1.10095e-06C5.4964 0.02544 3.76386 0.673089 2.48936 1.80323C1.21486 2.93337 0.500568 4.45541 0.500568 6.041C0.500568 7.62659 1.21486 9.14863 2.48936 10.2788C3.76386 11.4089 5.4964 12.0566 7.31321 12.082L14.5 12.25C15 12.25 15.0427 13.3404 15.0427 14C15.0427 14.6596 15.073 15.2927 15.1158 15.918L7.31321 15.918C5.4964 15.9434 3.76386 16.5911 2.48936 17.7212C1.21486 18.8514 0.500567 20.3734 0.500567 21.959C0.500567 23.5446 1.21486 25.0666 2.48936 26.1968C3.76386 27.3269 5.4964 27.9746 7.31321 28L25.5994 28C27.4318 27.9959 29.1875 27.3576 30.4812 26.2252C31.7749 25.0928 32.5009 23.5588 32.5 21.9598ZM29.6727 6.04022C29.6732 6.98405 29.2446 7.8895 28.481 8.5579C27.7173 9.22631 26.681 9.60308 25.5994 9.60556L17.4974 9.60555C17.2039 7.83811 16.6447 6.11213 15.8342 4.47222C15.4768 3.7617 15.0193 3.09283 14.4723 2.48111L25.5994 2.48111C26.6798 2.48358 27.715 2.8595 28.4785 3.52656C29.2419 4.19362 29.6713 5.09747 29.6727 6.04022ZM7.31321 9.60555C6.22959 9.60555 5.19036 9.22992 4.42412 8.56129C3.65789 7.89266 3.22742 6.98581 3.22742 6.04022C3.22742 5.09464 3.65789 4.18778 4.42412 3.51915C5.19036 2.85052 6.2296 2.47489 7.31321 2.47489L9.14754 2.47489C10.7679 2.47489 12.3028 3.59489 13.2583 5.47244C13.9124 6.7954 14.3776 8.18352 14.6434 9.60555L7.31321 9.60555ZM3.2399 21.9598C3.23943 21.0159 3.66802 20.1105 4.43166 19.4421C5.1953 18.7737 6.23161 18.3969 7.31321 18.3944L15.4153 18.3944C15.7088 20.1619 16.268 21.8879 17.0785 23.5278C17.4358 24.2383 17.8933 24.9072 18.4404 25.5189L7.31321 25.5189C6.23285 25.5164 5.19762 25.1405 4.43418 24.4734C3.67074 23.8064 3.24131 22.9025 3.2399 21.9598ZM19.6651 22.5276C19.011 21.2046 18.5458 19.8165 18.28 18.3944L25.5994 18.3944C26.6831 18.3944 27.7223 18.7701 28.4885 19.4387C29.2548 20.1073 29.6852 21.0142 29.6852 21.9598C29.6852 22.9054 29.2548 23.8122 28.4885 24.4809C27.7223 25.1495 26.6831 25.5251 25.5994 25.5251L23.7651 25.5251C22.1518 25.5251 20.617 24.4051 19.6651 22.5276Z" fill="url(#paint0_linear_2775_765)"/>
<path opacity="0.8" d="M32.5 6.04022C32.5014 7.63948 31.7756 9.17389 30.4818 10.3066C29.188 11.4394 27.4321 12.0779 25.5993 12.082L17.9481 12.082C17.9 12.7042 17.8697 13.3404 17.8697 14C17.8697 14.6596 17.8394 15.2927 17.7966 15.918L25.5993 15.918C27.4162 15.9434 29.1487 16.5911 30.4232 17.7212C31.6978 18.8514 32.4121 20.3734 32.4121 21.959C32.4121 23.5446 31.6978 25.0666 30.4232 26.1968C29.1487 27.3269 27.4162 27.9746 25.5993 28L7.31277 28C5.49592 27.9746 3.76335 27.3269 2.48883 26.1968C1.21431 25.0666 0.5 23.5446 0.5 21.959C0.5 20.3734 1.21431 18.8514 2.48883 17.7212C3.76335 16.5911 5.49592 15.9434 7.31277 15.918L14.4997 15.75C14.9997 15.75 15.0424 14.6596 15.0424 14C15.0424 13.3404 15.0727 12.7073 15.1155 12.082L7.31277 12.082C5.49592 12.0566 3.76335 11.4089 2.48883 10.2788C1.21431 9.14863 0.5 7.62659 0.5 6.041C0.5 4.45541 1.21431 2.93337 2.48883 1.80323C3.76335 0.673093 5.49592 0.0254399 7.31277 -3.00355e-07L25.5993 -8.22899e-08C27.4317 0.00411981 29.1875 0.642418 30.4812 1.77482C31.7749 2.90723 32.5009 4.44123 32.5 6.04022ZM29.6727 21.9598C29.6732 21.016 29.2446 20.1105 28.4809 19.4421C27.7173 18.7737 26.6809 18.3969 25.5993 18.3944L17.4971 18.3944C17.2036 20.1619 16.6444 21.8879 15.8339 23.5278C15.4765 24.2383 15.019 24.9072 14.4719 25.5189L25.5993 25.5189C26.6797 25.5164 27.7149 25.1405 28.4784 24.4734C29.2418 23.8064 29.6713 22.9025 29.6727 21.9598ZM7.31277 18.3944C6.22913 18.3944 5.18987 18.7701 4.42363 19.4387C3.65738 20.1073 3.2269 21.0142 3.2269 21.9598C3.2269 22.9054 3.65738 23.8122 4.42363 24.4808C5.18987 25.1495 6.22913 25.5251 7.31277 25.5251L9.14713 25.5251C10.7676 25.5251 12.3024 24.4051 13.2579 22.5276C13.912 21.2046 14.3772 19.8165 14.6431 18.3944L7.31277 18.3944ZM3.23939 6.04022C3.23891 6.98405 3.66751 7.8895 4.43117 8.55791C5.19482 9.22631 6.23115 9.60308 7.31277 9.60555L15.415 9.60555C15.7085 7.8381 16.2677 6.11213 17.0782 4.47222C17.4356 3.7617 17.8931 3.09283 18.4401 2.48111L7.31277 2.48111C6.23238 2.48358 5.19713 2.8595 4.43368 3.52656C3.67023 4.19362 3.2408 5.09747 3.23939 6.04022ZM19.6648 5.47244C19.0107 6.79541 18.5455 8.18352 18.2797 9.60555L25.5993 9.60555C26.683 9.60555 27.7222 9.22992 28.4885 8.56129C29.2547 7.89266 29.6852 6.98581 29.6852 6.04022C29.6852 5.09464 29.2547 4.18778 28.4885 3.51915C27.7222 2.85052 26.683 2.47489 25.5993 2.47489L23.765 2.47489C22.1516 2.47489 20.6168 3.59489 19.6648 5.47244Z" fill="url(#paint1_linear_2775_765)"/>
</g>
<path d="M49.185 8.598V22.5H45.783V8.598H49.185ZM41.373 10.11V6.96H53.595V10.11H41.373ZM57.7788 22.773C56.6728 22.773 55.7908 22.472 55.1328 21.87C54.4888 21.254 54.1668 20.435 54.1668 19.413C54.1668 18.447 54.4958 17.677 55.1538 17.103C55.8258 16.529 56.7918 16.193 58.0518 16.095L60.9918 15.864V15.696C60.9918 15.346 60.9218 15.059 60.7818 14.835C60.6418 14.597 60.4388 14.422 60.1728 14.31C59.9208 14.184 59.5988 14.121 59.2068 14.121C58.5208 14.121 57.9958 14.247 57.6318 14.499C57.2818 14.751 57.1068 15.115 57.1068 15.591H54.4188C54.4188 14.793 54.6218 14.1 55.0278 13.512C55.4338 12.924 56.0078 12.469 56.7498 12.147C57.5058 11.825 58.3808 11.664 59.3748 11.664C60.3968 11.664 61.2578 11.846 61.9578 12.21C62.6718 12.574 63.2108 13.106 63.5748 13.806C63.9528 14.506 64.1418 15.36 64.1418 16.368V22.5H61.2858L61.0758 21.114C60.9078 21.59 60.5088 21.989 59.8788 22.311C59.2628 22.619 58.5628 22.773 57.7788 22.773ZM58.9128 20.379C59.5288 20.379 60.0328 20.232 60.4248 19.938C60.8168 19.63 61.0128 19.175 61.0128 18.573V18.006L59.3748 18.153C58.6748 18.209 58.1778 18.328 57.8838 18.51C57.6038 18.678 57.4638 18.93 57.4638 19.266C57.4638 19.644 57.5828 19.924 57.8208 20.106C58.0588 20.288 58.4228 20.379 58.9128 20.379ZM70.9553 22.5H67.7213V12H70.7663L70.9763 13.092C71.2983 12.644 71.7393 12.294 72.2993 12.042C72.8733 11.79 73.5033 11.664 74.1893 11.664C75.4353 11.664 76.4013 12.049 77.0873 12.819C77.7873 13.575 78.1373 14.639 78.1373 16.011V22.5H74.9033V16.788C74.9033 16.13 74.7353 15.605 74.3993 15.213C74.0633 14.807 73.6153 14.604 73.0553 14.604C72.4113 14.604 71.9003 14.8 71.5223 15.192C71.1443 15.57 70.9553 16.088 70.9553 16.746V22.5ZM81.1916 17.061C81.1916 15.997 81.4016 15.059 81.8216 14.247C82.2556 13.435 82.8506 12.798 83.6066 12.336C84.3766 11.874 85.2516 11.643 86.2316 11.643C87.0576 11.643 87.7646 11.811 88.3526 12.147C88.9547 12.483 89.3677 12.924 89.5917 13.47L89.2766 13.68L89.5286 12H92.5737V21.828C92.5737 23.074 92.3427 24.145 91.8807 25.041C91.4187 25.951 90.7606 26.644 89.9066 27.12C89.0527 27.61 88.0237 27.855 86.8197 27.855C85.2096 27.855 83.9006 27.421 82.8926 26.553C81.8846 25.699 81.3036 24.53 81.1496 23.046H84.4256C84.4536 23.634 84.6776 24.089 85.0976 24.411C85.5176 24.747 86.0846 24.915 86.7986 24.915C87.5826 24.915 88.1986 24.698 88.6466 24.264C89.1087 23.83 89.3397 23.242 89.3397 22.5V20.274L89.6967 20.547C89.4727 21.093 89.0387 21.534 88.3946 21.87C87.7506 22.206 87.0086 22.374 86.1686 22.374C85.1886 22.374 84.3206 22.15 83.5646 21.702C82.8226 21.254 82.2416 20.631 81.8216 19.833C81.4016 19.035 81.1916 18.111 81.1916 17.061ZM84.4466 16.977C84.4466 17.481 84.5516 17.929 84.7616 18.321C84.9716 18.699 85.2586 19 85.6226 19.224C85.9866 19.448 86.4066 19.56 86.8827 19.56C87.3726 19.56 87.7996 19.455 88.1636 19.245C88.5416 19.021 88.8286 18.72 89.0246 18.342C89.2347 17.95 89.3397 17.495 89.3397 16.977C89.3397 16.459 89.2347 16.018 89.0246 15.654C88.8286 15.276 88.5416 14.982 88.1636 14.772C87.7996 14.562 87.3656 14.457 86.8616 14.457C86.3856 14.457 85.9657 14.562 85.6016 14.772C85.2376 14.982 84.9506 15.276 84.7406 15.654C84.5446 16.032 84.4466 16.473 84.4466 16.977ZM99.4997 22.5H96.2657V6.666H99.4997V22.5ZM108.058 22.773C107.008 22.773 106.07 22.535 105.244 22.059C104.432 21.583 103.788 20.932 103.312 20.106C102.85 19.266 102.619 18.307 102.619 17.229C102.619 16.137 102.843 15.178 103.291 14.352C103.753 13.512 104.39 12.854 105.202 12.378C106.014 11.902 106.945 11.664 107.995 11.664C109.101 11.664 110.053 11.895 110.851 12.357C111.649 12.805 112.265 13.449 112.699 14.289C113.133 15.115 113.35 16.102 113.35 17.25V18.069L104.32 18.111L104.362 16.116H110.137C110.137 15.556 109.948 15.115 109.57 14.793C109.192 14.457 108.674 14.289 108.016 14.289C107.47 14.289 107.022 14.394 106.672 14.604C106.336 14.814 106.084 15.143 105.916 15.591C105.748 16.025 105.664 16.585 105.664 17.271C105.664 18.251 105.86 18.979 106.252 19.455C106.658 19.917 107.281 20.148 108.121 20.148C108.737 20.148 109.248 20.043 109.654 19.833C110.06 19.623 110.319 19.329 110.431 18.951H113.392C113.21 20.113 112.636 21.044 111.67 21.744C110.704 22.43 109.5 22.773 108.058 22.773Z" fill="white"/>
<defs>
<linearGradient id="paint0_linear_2775_765" x1="2.88462" y1="1.77333" x2="27.029" y2="29.367" gradientUnits="userSpaceOnUse">
<stop stop-color="#8E59FF"/>
<stop offset="1" stop-color="#6888F9"/>
</linearGradient>
<linearGradient id="paint1_linear_2775_765" x1="2.8841" y1="26.2267" x2="27.0285" y2="-1.36739" gradientUnits="userSpaceOnUse">
<stop stop-color="#8E59FF"/>
<stop offset="1" stop-color="#6888F9"/>
</linearGradient>
<clipPath id="clip0_2775_765">
<rect width="28" height="32" fill="white" transform="translate(32.5) rotate(90)"/>
</clipPath>
</defs>
</svg>
